<?xml version="1.0" encoding="UTF-8"?>
<svg width="40px" height="40px" viewBox="0 0 40 40" version="1.1" xmlns="http://www.w3.org/2000/svg" xmlns:xlink="http://www.w3.org/1999/xlink">
    <title>Artboard Copy</title>
    <g id="Artboard-Copy" stroke="none" stroke-width="1" fill="none" fill-rule="evenodd">
        <g id="folder-outline-svgrepo-com" transform="translate(0.000000, 5.000000)" fill="#FFFFFF" fill-rule="nonzero">
            <path d="M38.3642629,2.76589698 L18.7469982,2.76589698 L16.3296625,0.507069272 C16.0277087,0.224866785 15.6298401,0.0679218472 15.216341,0.0679218472 L1.63055062,0.0679218472 C0.730017762,0.0679218472 0,0.797655417 0,1.69840142 L0,27.3548135 C0,28.2555595 0.730017762,28.9853641 1.63055062,28.9853641 L38.3640497,28.9853641 C39.2645826,28.9853641 39.9946004,28.2555595 39.9946004,27.3548135 L39.9946004,4.39637655 C39.9946004,3.49591474 39.2647247,2.76589698 38.3642629,2.76589698 Z M36.7336412,25.724405 L3.26131439,25.724405 L3.26131439,3.32916519 L14.5732149,3.32916519 L16.9903375,5.5879929 C17.2922913,5.87019538 17.6902309,6.02714032 18.103659,6.02714032 L36.7336412,6.02714032 L36.7336412,25.724405 Z" id="Shape"></path>
        </g>
    </g>
</svg>