<?xml version="1.0" encoding="UTF-8" standalone="no"?>
<svg xmlns:dc="http://purl.org/dc/elements/1.1/" xmlns:cc="http://creativecommons.org/ns#"
    xmlns:rdf="http://www.w3.org/1999/02/22-rdf-syntax-ns#" xmlns:svg="http://www.w3.org/2000/svg"
    xmlns="http://www.w3.org/2000/svg" xmlns:sodipodi="http://sodipodi.sourceforge.net/DTD/sodipodi-0.dtd"
    xmlns:inkscape="http://www.inkscape.org/namespaces/inkscape" id="Layer_1" data-name="Layer 1"
    viewBox="0 0 55 12.7" version="1.1" sodipodi:docname="logo-skynetsend.svg"
    inkscape:version="1.0.1 (3bc2e813f5, 2020-09-07)">
    <metadata id="metadata23">
        <rdf:RDF>
            <cc:Work rdf:about="">
                <dc:format>image/svg+xml</dc:format>
                <dc:type rdf:resource="http://purl.org/dc/dcmitype/StillImage" />
            </cc:Work>
        </rdf:RDF>
    </metadata>

    <defs id="defs4">
        <style id="style2">
            .cls-1 {
                fill: #353535;
            }
        </style>
    </defs>
    <path class="cls-1"
        d="M1.19,9.32A3.21,3.21,0,0,1-.18,8.22,2.91,2.91,0,0,1-.66,6.57v-.2A.19.19,0,0,1-.6,6.22a.18.18,0,0,1,.15-.06H1.72a.18.18,0,0,1,.15.06.19.19,0,0,1,.06.15v.08a.86.86,0,0,0,.41.7,1.84,1.84,0,0,0,1.1.3,1,1,0,0,0,.74-.22.65.65,0,0,0,.23-.48.5.5,0,0,0-.28-.46,5.64,5.64,0,0,0-1-.38L2.7,5.8A7.59,7.59,0,0,1,.38,4.68a2.38,2.38,0,0,1-.94-2A2.69,2.69,0,0,1-.09,1.09,3.11,3.11,0,0,1,1.22,0,4.69,4.69,0,0,1,3.09-.32a4.7,4.7,0,0,1,2,.4,3.4,3.4,0,0,1,1.4,1.15A2.94,2.94,0,0,1,7,2.93v.12a.21.21,0,0,1-.05.16.25.25,0,0,1-.16,0H4.6a.25.25,0,0,1-.15,0,.21.21,0,0,1-.06-.16h0A1,1,0,0,0,4,2.28a1.49,1.49,0,0,0-1-.35,1.21,1.21,0,0,0-.7.18A.58.58,0,0,0,2,2.62a.56.56,0,0,0,.19.43,2.12,2.12,0,0,0,.58.33A12.07,12.07,0,0,0,4,3.79L5,4.1A3,3,0,0,1,6.45,5,2.45,2.45,0,0,1,7,6.68,2.77,2.77,0,0,1,6.56,8.3a3,3,0,0,1-1.33,1,5,5,0,0,1-2,.36A5.22,5.22,0,0,1,1.19,9.32Z"
        transform="translate(0.66 0.32)" id="path6" />
    <path class="cls-1"
        d="M7.94,9.53a.18.18,0,0,1-.06-.15V0a.19.19,0,0,1,.06-.15.18.18,0,0,1,.15-.06H10.3a.21.21,0,0,1,.16.06.23.23,0,0,1,0,.15V4s0,.05,0,.05,0,0,.06,0l1.19-1.61A.27.27,0,0,1,12,2.31h2.52a.18.18,0,0,1,.13,0,.11.11,0,0,1,.05.09.21.21,0,0,1,0,.12L12.89,5a.09.09,0,0,0,0,.1L15,9.34l0,.11c0,.09-.06.14-.18.14H12.49a.26.26,0,0,1-.26-.17L11.1,6.73a.09.09,0,0,0,0,0s0,0-.05,0l-.46.78a.23.23,0,0,0,0,.09V9.38a.21.21,0,0,1,0,.15.21.21,0,0,1-.16.06H8.09A.18.18,0,0,1,7.94,9.53Z"
        transform="translate(0.66 0.32)" id="path8" />
    <path class="cls-1"
        d="M15.73,12.32a.61.61,0,0,1,0-.15V10.43q0-.21.15-.21a5.55,5.55,0,0,0,1.31-.11.56.56,0,0,0,.44-.48V9.55l-2.22-7a.22.22,0,0,1,0-.09c0-.1.07-.15.2-.15h2.35a.22.22,0,0,1,.24.18l.75,3.74s0,.06,0,.06,0,0,.05-.06l.75-3.74A.22.22,0,0,1,20,2.31h2.3c.15,0,.21.08.16.24L20.17,9.62a6.31,6.31,0,0,1-.77,1.64,2.44,2.44,0,0,1-1.21.84,7.51,7.51,0,0,1-2.29.28h-.1A.1.1,0,0,1,15.73,12.32Z"
        transform="translate(0.66 0.32)" id="path10" />
    <path class="cls-1"
        d="m 25.658718,9.64 a 3.12,3.12 0 0 1 -1.38,-1.1 2.84,2.84 0 0 1 -0.49,-1.65 v -0.2 a 0.19,0.19 0 0 1 0.06,-0.15 0.2,0.2 0 0 1 0.15,-0.06 h 2.17 a 0.21,0.21 0 0 1 0.16,0.06 0.23,0.23 0 0 1 0,0.15 v 0.08 a 0.85,0.85 0 0 0 0.42,0.7 1.82,1.82 0 0 0 1.1,0.3 1,1 0 0 0 0.74,-0.22 0.64,0.64 0 0 0 0.22,-0.48 0.48,0.48 0 0 0 -0.28,-0.46 5.64,5.64 0 0 0 -1,-0.38 l -0.41,-0.11 a 7.59,7.59 0 0 1 -2.32,-1.12 2.38,2.38 0 0 1 -0.94,-2 2.62,2.62 0 0 1 0.48,-1.56 3,3 0 0 1 1.31,-1 4.62,4.62 0 0 1 1.87,-0.36 4.77,4.77 0 0 1 2,0.4 3.47,3.47 0 0 1 1.4,1.15 2.94,2.94 0 0 1 0.51,1.7 v 0.12 a 0.21,0.21 0 0 1 -0.06,0.16 0.25,0.25 0 0 1 -0.15,0 h -2.14 a 0.25,0.25 0 0 1 -0.16,0 0.25,0.25 0 0 1 0,-0.16 v 0 a 1,1 0 0 0 -0.38,-0.76 1.45,1.45 0 0 0 -1,-0.35 1.22,1.22 0 0 0 -0.71,0.18 0.6,0.6 0 0 0 -0.26,0.51 0.56,0.56 0 0 0 0.19,0.43 2.28,2.28 0 0 0 0.58,0.33 11.56,11.56 0 0 0 1.21,0.41 l 1,0.31 a 3,3 0 0 1 1.38,0.81 2.45,2.45 0 0 1 0.58,1.65 2.83,2.83 0 0 1 -0.47,1.62 3,3 0 0 1 -1.33,1 5.09,5.09 0 0 1 -2,0.36 5.26,5.26 0 0 1 -2.05,-0.31 z"
        id="path12" />
    <path class="cls-1"
        d="m 39.378718,6.38 a 3.33,3.33 0 0 1 0,0.35 0.18,0.18 0 0 1 -0.21,0.2 h -4.2 a 0.05,0.05 0 0 0 -0.06,0.06 0.59,0.59 0 0 0 0.11,0.29 1.1,1.1 0 0 0 0.5,0.4 1.92,1.92 0 0 0 0.81,0.16 2.28,2.28 0 0 0 0.7,-0.11 1.63,1.63 0 0 0 0.54,-0.33 0.27,0.27 0 0 1 0.14,0 0.19,0.19 0 0 1 0.16,0.08 l 1.06,1.36 a 0.24,0.24 0 0 1 0.06,0.15 0.17,0.17 0 0 1 -0.07,0.14 3,3 0 0 1 -1.22,0.71 5,5 0 0 1 -1.57,0.23 4.36,4.36 0 0 1 -2.23,-0.54 3.25,3.25 0 0 1 -1.35,-1.61 3.89,3.89 0 0 1 -0.27,-1.6 4.68,4.68 0 0 1 0.25,-1.56 3.36,3.36 0 0 1 1.21,-1.64 3.5,3.5 0 0 1 2,-0.6 3.38,3.38 0 0 1 1.66,0.42 3.56,3.56 0 0 1 1.26,1.15 4,4 0 0 1 0.64,1.66 4.44,4.44 0 0 1 0.08,0.63 z m -4.41,-1.06 v 0.16 c 0,0 0,0 0,0.06 h 0.06 1.55 a 0.05,0.05 0 0 0 0.06,-0.06 1.63,1.63 0 0 0 0,-0.18 0.76,0.76 0 0 0 -0.36,-0.38 1,1 0 0 0 -0.54,-0.15 0.81,0.81 0 0 0 -0.77,0.55 z"
        id="path14" />
    <path class="cls-1"
        d="m 45.708718,2.83 a 2.2,2.2 0 0 1 0.89,0.9 2.88,2.88 0 0 1 0.33,1.41 V 9.7 a 0.18,0.18 0 0 1 -0.06,0.15 0.2,0.2 0 0 1 -0.15,0.06 h -2.21 a 0.21,0.21 0 0 1 -0.16,-0.06 0.17,0.17 0 0 1 0,-0.15 v -4 a 1,1 0 0 0 -0.22,-0.68 0.73,0.73 0 0 0 -0.57,-0.26 0.72,0.72 0 0 0 -0.58,0.26 1,1 0 0 0 -0.22,0.68 v 4 a 0.21,0.21 0 0 1 -0.05,0.15 0.21,0.21 0 0 1 -0.16,0.06 h -2.27 a 0.19,0.19 0 0 1 -0.15,-0.06 0.18,0.18 0 0 1 -0.06,-0.15 V 2.84 a 0.21,0.21 0 0 1 0.21,-0.21 h 2.21 a 0.21,0.21 0 0 1 0.16,0.06 0.23,0.23 0 0 1 0.05,0.15 v 0.48 c 0,0 0,0.07 0,0.07 0,0 0,0 0,0 a 1.82,1.82 0 0 1 1.67,-0.87 2.5,2.5 0 0 1 1.34,0.31 z"
        id="path16" />
    <path class="cls-1"
        d="m 52.368718,0.17 a 0.21,0.21 0 0 1 0.16,-0.06 h 2.21 a 0.19,0.19 0 0 1 0.15,0.06 0.19,0.19 0 0 1 0.06,0.15 V 9.7 a 0.18,0.18 0 0 1 -0.06,0.15 0.19,0.19 0 0 1 -0.15,0.06 h -2.21 a 0.21,0.21 0 0 1 -0.16,-0.06 0.21,0.21 0 0 1 0,-0.15 V 9.32 a 0,0 0 0 0 -0.09,0 1.79,1.79 0 0 1 -1.62,0.77 2.68,2.68 0 0 1 -1.69,-0.59 3.15,3.15 0 0 1 -1,-1.62 5.47,5.47 0 0 1 -0.21,-1.57 5,5 0 0 1 0.3,-1.79 3.24,3.24 0 0 1 1,-1.39 2.77,2.77 0 0 1 1.71,-0.54 1.76,1.76 0 0 1 1.51,0.57 c 0,0 0,0 0.06,0 0.06,0 0,0 0,0 V 0.32 a 0.23,0.23 0 0 1 0.03,-0.15 z m -0.09,6.15 a 2.21,2.21 0 0 0 -0.23,-1.07 0.82,0.82 0 0 0 -1.47,0 2.21,2.21 0 0 0 -0.21,1 2.19,2.19 0 0 0 0.21,1 0.82,0.82 0 0 0 0.75,0.46 0.81,0.81 0 0 0 0.78,-0.39 2.16,2.16 0 0 0 0.17,-1 z"
        id="path18" />
</svg>