<svg id="Layer_1" data-name="Layer 1" xmlns="http://www.w3.org/2000/svg" viewBox="0 0 78.33 12.7"><defs><style>.cls-1{fill:#353535;}</style></defs><path class="cls-1" d="M1.19,9.32A3.21,3.21,0,0,1-.18,8.22,2.91,2.91,0,0,1-.66,6.57v-.2A.19.19,0,0,1-.6,6.22a.18.18,0,0,1,.15-.06H1.72a.18.18,0,0,1,.15.06.19.19,0,0,1,.06.15v.08a.86.86,0,0,0,.41.7,1.84,1.84,0,0,0,1.1.3,1,1,0,0,0,.74-.22.65.65,0,0,0,.23-.48.5.5,0,0,0-.28-.46,5.64,5.64,0,0,0-1-.38L2.7,5.8A7.59,7.59,0,0,1,.38,4.68a2.38,2.38,0,0,1-.94-2A2.69,2.69,0,0,1-.09,1.09,3.11,3.11,0,0,1,1.22,0,4.69,4.69,0,0,1,3.09-.32a4.7,4.7,0,0,1,2,.4,3.4,3.4,0,0,1,1.4,1.15A2.94,2.94,0,0,1,7,2.93v.12a.21.21,0,0,1-.05.16.25.25,0,0,1-.16,0H4.6a.25.25,0,0,1-.15,0,.21.21,0,0,1-.06-.16h0A1,1,0,0,0,4,2.28a1.49,1.49,0,0,0-1-.35,1.21,1.21,0,0,0-.7.18A.58.58,0,0,0,2,2.62a.56.56,0,0,0,.19.43,2.12,2.12,0,0,0,.58.33A12.07,12.07,0,0,0,4,3.79L5,4.1A3,3,0,0,1,6.45,5,2.45,2.45,0,0,1,7,6.68,2.77,2.77,0,0,1,6.56,8.3a3,3,0,0,1-1.33,1,5,5,0,0,1-2,.36A5.22,5.22,0,0,1,1.19,9.32Z" transform="translate(0.66 0.32)"/><path class="cls-1" d="M7.94,9.53a.18.18,0,0,1-.06-.15V0a.19.19,0,0,1,.06-.15.18.18,0,0,1,.15-.06H10.3a.21.21,0,0,1,.16.06.23.23,0,0,1,0,.15V4s0,.05,0,.05,0,0,.06,0l1.19-1.61A.27.27,0,0,1,12,2.31h2.52a.18.18,0,0,1,.13,0,.11.11,0,0,1,.05.09.21.21,0,0,1,0,.12L12.89,5a.09.09,0,0,0,0,.1L15,9.34l0,.11c0,.09-.06.14-.18.14H12.49a.26.26,0,0,1-.26-.17L11.1,6.73a.09.09,0,0,0,0,0s0,0-.05,0l-.46.78a.23.23,0,0,0,0,.09V9.38a.21.21,0,0,1,0,.15.21.21,0,0,1-.16.06H8.09A.18.18,0,0,1,7.94,9.53Z" transform="translate(0.66 0.32)"/><path class="cls-1" d="M15.73,12.32a.61.61,0,0,1,0-.15V10.43q0-.21.15-.21a5.55,5.55,0,0,0,1.31-.11.56.56,0,0,0,.44-.48V9.55l-2.22-7a.22.22,0,0,1,0-.09c0-.1.07-.15.2-.15h2.35a.22.22,0,0,1,.24.18l.75,3.74s0,.06,0,.06,0,0,.05-.06l.75-3.74A.22.22,0,0,1,20,2.31h2.3c.15,0,.21.08.16.24L20.17,9.62a6.31,6.31,0,0,1-.77,1.64,2.44,2.44,0,0,1-1.21.84,7.51,7.51,0,0,1-2.29.28h-.1A.1.1,0,0,1,15.73,12.32Z" transform="translate(0.66 0.32)"/><path class="cls-1" d="M28.75,2.51a2.15,2.15,0,0,1,.89.9A2.88,2.88,0,0,1,30,4.82V9.38a.21.21,0,0,1,0,.15.21.21,0,0,1-.16.06H27.55a.21.21,0,0,1-.21-.21v-4a1,1,0,0,0-.22-.68.7.7,0,0,0-.56-.26.71.71,0,0,0-.58.26,1,1,0,0,0-.22.68v4a.18.18,0,0,1-.06.15.2.2,0,0,1-.15.06H23.34a.21.21,0,0,1-.16-.06.17.17,0,0,1-.05-.15V2.52a.18.18,0,0,1,.05-.15.21.21,0,0,1,.16-.06h2.21a.2.2,0,0,1,.15.06.19.19,0,0,1,.06.15V3s0,.07,0,.07,0,0,0,0a1.8,1.8,0,0,1,1.66-.87A2.5,2.5,0,0,1,28.75,2.51Z" transform="translate(0.66 0.32)"/><path class="cls-1" d="M37.88,6.06a3.33,3.33,0,0,1,0,.35.18.18,0,0,1-.21.2h-4.2a.05.05,0,0,0-.06.06.59.59,0,0,0,.11.29,1.1,1.1,0,0,0,.5.4,1.92,1.92,0,0,0,.81.16,2.28,2.28,0,0,0,.7-.11,1.63,1.63,0,0,0,.54-.33.3.3,0,0,1,.14,0,.19.19,0,0,1,.16.08l1.06,1.36a.24.24,0,0,1,.06.15.17.17,0,0,1-.07.14,3,3,0,0,1-1.22.71,5,5,0,0,1-1.57.23,4.36,4.36,0,0,1-2.23-.54A3.25,3.25,0,0,1,31.05,7.6,3.89,3.89,0,0,1,30.74,6,4.68,4.68,0,0,1,31,4.47,3.36,3.36,0,0,1,32.24,2.8a3.5,3.5,0,0,1,2-.6,3.38,3.38,0,0,1,1.66.42A3.56,3.56,0,0,1,37.2,3.77a4,4,0,0,1,.64,1.66A4.44,4.44,0,0,1,37.88,6.06ZM33.47,5l0,.16s0,0,0,.06l.06,0h1.59a.05.05,0,0,0,.06-.06,1.63,1.63,0,0,0,0-.18.76.76,0,0,0-.29-.41,1,1,0,0,0-.54-.15A.81.81,0,0,0,33.47,5Z" transform="translate(0.66 0.32)"/><path class="cls-1" d="M43.08,4.35a.21.21,0,0,1-.16.06H41.76s-.07,0-.07.07v2.2c0,.47.17.7.5.7h.52a.21.21,0,0,1,.16.06.21.21,0,0,1,.05.15V9.38a.2.2,0,0,1-.21.22c-.36,0-.71.05-1.05.05a3.4,3.4,0,0,1-1.87-.4,1.64,1.64,0,0,1-.62-1.48V4.48c0-.05,0-.07-.07-.07h-.76a.2.2,0,0,1-.15-.06.18.18,0,0,1-.06-.15V2.52a.19.19,0,0,1,.06-.15.2.2,0,0,1,.15-.06h.76s.07,0,.07-.07V.56a.19.19,0,0,1,.06-.15.18.18,0,0,1,.15-.06h2.1a.18.18,0,0,1,.15.06.19.19,0,0,1,.06.15V2.24s0,.07.07.07h1.16a.21.21,0,0,1,.16.06.23.23,0,0,1,.05.15V4.2A.21.21,0,0,1,43.08,4.35Z" transform="translate(0.66 0.32)"/><path class="cls-1" d="M48.38,9.32A3.12,3.12,0,0,1,47,8.22a2.84,2.84,0,0,1-.49-1.65v-.2a.19.19,0,0,1,.06-.15.2.2,0,0,1,.15-.06h2.17a.21.21,0,0,1,.16.06.23.23,0,0,1,0,.15v.08a.85.85,0,0,0,.42.7,1.82,1.82,0,0,0,1.1.3,1,1,0,0,0,.74-.22.64.64,0,0,0,.22-.48.48.48,0,0,0-.28-.46,5.64,5.64,0,0,0-1-.38l-.41-.11a7.59,7.59,0,0,1-2.32-1.12,2.38,2.38,0,0,1-.94-2,2.62,2.62,0,0,1,.48-1.56,3,3,0,0,1,1.31-1,4.62,4.62,0,0,1,1.87-.36,4.77,4.77,0,0,1,2,.4,3.47,3.47,0,0,1,1.4,1.15,2.94,2.94,0,0,1,.51,1.7v.12a.21.21,0,0,1-.06.16.25.25,0,0,1-.15,0H51.8a.25.25,0,0,1-.16,0,.25.25,0,0,1,0-.16h0a1,1,0,0,0-.38-.76,1.45,1.45,0,0,0-1-.35,1.22,1.22,0,0,0-.71.18.6.6,0,0,0-.26.51.56.56,0,0,0,.19.43,2.28,2.28,0,0,0,.58.33,11.56,11.56,0,0,0,1.21.41l1,.31A3,3,0,0,1,53.65,5a2.45,2.45,0,0,1,.58,1.65,2.83,2.83,0,0,1-.47,1.62,3,3,0,0,1-1.33,1,5.09,5.09,0,0,1-2,.36A5.26,5.26,0,0,1,48.38,9.32Z" transform="translate(0.66 0.32)"/><path class="cls-1" d="M62.1,6.06a3.33,3.33,0,0,1,0,.35.18.18,0,0,1-.21.2h-4.2a.05.05,0,0,0-.06.06.59.59,0,0,0,.11.29,1.1,1.1,0,0,0,.5.4,1.92,1.92,0,0,0,.81.16,2.28,2.28,0,0,0,.7-.11,1.63,1.63,0,0,0,.54-.33.27.27,0,0,1,.14,0,.19.19,0,0,1,.16.08l1.06,1.36a.24.24,0,0,1,.06.15.17.17,0,0,1-.07.14,3,3,0,0,1-1.22.71,5,5,0,0,1-1.57.23,4.36,4.36,0,0,1-2.23-.54A3.25,3.25,0,0,1,55.27,7.6,3.89,3.89,0,0,1,55,6a4.68,4.68,0,0,1,.25-1.56A3.36,3.36,0,0,1,56.46,2.8a3.5,3.5,0,0,1,2-.6,3.38,3.38,0,0,1,1.66.42,3.56,3.56,0,0,1,1.26,1.15,4,4,0,0,1,.64,1.66A4.44,4.44,0,0,1,62.1,6.06ZM57.69,5l0,.16s0,0,0,.06l.06,0H59.3a.05.05,0,0,0,.06-.06,1.63,1.63,0,0,0,0-.18A.76.76,0,0,0,59,4.6a1,1,0,0,0-.54-.15A.81.81,0,0,0,57.69,5Z" transform="translate(0.66 0.32)"/><path class="cls-1" d="M68.43,2.51a2.2,2.2,0,0,1,.89.9,2.88,2.88,0,0,1,.33,1.41V9.38a.18.18,0,0,1-.06.15.2.2,0,0,1-.15.06H67.23a.21.21,0,0,1-.16-.06.17.17,0,0,1,0-.15v-4a1,1,0,0,0-.22-.68.73.73,0,0,0-.57-.26.72.72,0,0,0-.58.26,1,1,0,0,0-.22.68v4a.21.21,0,0,1-.05.15.21.21,0,0,1-.16.06H63a.19.19,0,0,1-.15-.06.18.18,0,0,1-.06-.15V2.52A.21.21,0,0,1,63,2.31h2.21a.21.21,0,0,1,.16.06.23.23,0,0,1,.05.15V3s0,.07,0,.07,0,0,0,0a1.82,1.82,0,0,1,1.67-.87A2.5,2.5,0,0,1,68.43,2.51Z" transform="translate(0.66 0.32)"/><path class="cls-1" d="M75.09-.15a.21.21,0,0,1,.16-.06h2.21a.19.19,0,0,1,.15.06.19.19,0,0,1,.06.15V9.38a.18.18,0,0,1-.06.15.19.19,0,0,1-.15.06H75.25a.21.21,0,0,1-.16-.06.21.21,0,0,1,0-.15V9a0,0,0,1,0-.09,0,1.79,1.79,0,0,1-1.62.77,2.68,2.68,0,0,1-1.69-.59,3.15,3.15,0,0,1-1-1.62,5.47,5.47,0,0,1-.21-1.57,5,5,0,0,1,.3-1.79,3.24,3.24,0,0,1,1-1.39,2.77,2.77,0,0,1,1.71-.54A1.76,1.76,0,0,1,75,2.84s0,0,.06,0,0,0,0,0V0A.23.23,0,0,1,75.09-.15ZM75,6a2.21,2.21,0,0,0-.23-1.07.82.82,0,0,0-1.47,0,2.21,2.21,0,0,0-.21,1,2.19,2.19,0,0,0,.21,1,.82.82,0,0,0,.75.46A.81.81,0,0,0,74.83,7,2.16,2.16,0,0,0,75,6Z" transform="translate(0.66 0.32)"/></svg>