<?xml version="1.0" encoding="UTF-8"?>
<svg width="398px" height="210px" viewBox="0 0 398 210" version="1.1" xmlns="http://www.w3.org/2000/svg" xmlns:xlink="http://www.w3.org/1999/xlink">
    <title>Artboard</title>
    <g id="Artboard" stroke="none" stroke-width="1" fill="none" fill-rule="evenodd" opacity="0.923038">
        <g id="Group" opacity="0.15">
            <polyline id="Fill-3" fill="#FFFFFF" points="161.168498 105 167.303777 89.3658794 155.54023 85.4807692 161.168498 105"></polyline>
            <path d="M155.635468,85.6088148 L160.89981,104.096015 L166.637872,89.2886269 L155.635468,85.6088148 Z M160.827429,105.673077 L154.8867,84.8076923 L167.303777,88.9607281 L160.827429,105.673077 L160.827429,105.673077 Z" id="Fill-4" fill="#1D1D1B"></path>
            <polyline id="Fill-5" fill="#FFFFFF" points="167.303777 89.5595173 144.122427 29.6153846 128.091954 90.1923077 167.303777 89.5595173"></polyline>
            <path d="M144.092848,30.5551468 L128.099637,90.3419553 L167.220226,89.7175312 L144.092848,30.5551468 Z M127.438424,90.8653846 L144.003916,28.9423077 L167.957307,90.2184034 L127.438424,90.8653846 L127.438424,90.8653846 Z" id="Fill-6" fill="#1D1D1B"></path>
            <polygon id="Fill-7" fill="#FFFFFF" points="163.2932 78.8116138 167.470084 89.5562326 161.371647 105 177.760263 90.4137627 144.430213 30.2884615"></polygon>
            <path d="M145.586214,33.7550444 L167.389086,89.4122754 L161.625488,103.895775 L177.121752,90.2090674 L145.586214,33.7550444 Z M160.378466,105.673077 L166.850077,89.4102284 L143.776683,30.5105603 L144.225691,30.2884615 L177.760263,90.3206286 L160.378466,105.673077 L160.378466,105.673077 Z" id="Fill-8" fill="#1D1D1B"></path>
            <polyline id="Fill-9" fill="#FFFFFF" points="203.901478 98.9423077 143.600217 28.9423077 143.123153 30.751304 176.906909 90.1296459 203.901478 98.9423077"></polyline>
            <path d="M177.479922,89.4360797 L203.623273,97.891195 L143.991942,29.3172625 L143.662263,30.5547718 L177.479922,89.4360797 Z M205.208539,98.9423077 L177.145233,89.8663838 L177.097134,89.781658 L143.123153,30.6292277 L143.751948,28.2692308 L205.208539,98.9423077 L205.208539,98.9423077 Z" id="Fill-10" fill="#1D1D1B"></path>
            <polyline id="Fill-11" fill="#FFFFFF" points="339.182266 129.903846 334.245666 113.75 322.844007 118.616334 339.182266 129.903846"></polyline>
            <path d="M323.276271,118.926369 L338.909992,129.344846 L334.186196,114.435115 L323.276271,118.926369 Z M339.835796,130.576923 L322.190476,118.819031 L334.503629,113.75 L339.835796,130.576923 L339.835796,130.576923 Z" id="Fill-12" fill="#1D1D1B"></path>
            <polyline id="Fill-13" fill="#FFFFFF" points="334.607553 113.532325 279.057471 82.7884615 304.635174 140 334.607553 113.532325"></polyline>
            <path d="M279.472789,83.2989866 L304.458901,139.836171 L333.73778,113.680162 L279.472789,83.2989866 Z M304.282167,140.673077 L278.403941,82.1153846 L279.056271,82.481113 L334.607553,113.582943 L304.282167,140.673077 L304.282167,140.673077 Z" id="Fill-14" fill="#1D1D1B"></path>
            <polyline id="Fill-15" fill="#FFFFFF" points="279.057471 83.4615385 333.960714 113.914917 338.913586 129.903846 342.449918 107.729543 279.057471 83.4615385"></polyline>
            <path d="M282.470838,85.2494594 L333.941193,113.979356 L338.578144,129.043949 L341.89075,108.14054 L282.470838,85.2494594 Z M338.734272,131.25 L333.52668,114.336423 L279.057471,83.931935 L279.262483,83.4615385 L342.449918,107.804173 L342.416498,108.014273 L338.734272,131.25 L338.734272,131.25 Z" id="Fill-16" fill="#1D1D1B"></path>
            <polyline id="Fill-17" fill="#FFFFFF" points="368.591133 96.5391561 279.057471 82.7884615 279.810965 84.4953445 342.447601 107.692308 368.591133 96.5391561"></polyline>
            <path d="M279.756814,84.5711291 L342.175752,107.152258 L367.381226,96.6475413 L279.238279,83.4244075 L279.756814,84.5711291 Z M342.188205,107.692308 L279.391199,84.9749044 L278.403941,82.7884615 L278.857721,82.8571033 L369.244663,96.4168847 L342.188205,107.692308 L342.188205,107.692308 Z" id="Fill-18" fill="#1D1D1B"></path>
            <polyline id="Fill-19" fill="#FFFFFF" points="67.3136289 192.5 59.7900663 177.692308 49.6683087 184.608475 67.3136289 192.5"></polyline>
            <path d="M50.7252379,184.827723 L67.5176777,192.137447 L60.357515,178.421235 L50.7252379,184.827723 Z M68.6206897,193.173077 L49.6683087,184.922801 L60.5393683,177.692308 L68.6206897,193.173077 L68.6206897,193.173077 Z" id="Fill-20" fill="#1D1D1B"></path>
            <polyline id="Fill-21" fill="#FFFFFF" points="60.7783251 177.417335 0.653530378 157.5 36.0653193 209.326923 60.7783251 177.417335"></polyline>
            <path d="M1.25942567,158.456952 L35.8214588,209.146183 L59.9410228,177.93722 L1.25942567,158.456952 Z M35.7966572,210 L0,157.5 L60.7783251,177.675533 L35.7966572,210 L35.7966572,210 Z" id="Fill-22" fill="#1D1D1B"></path>
            <polyline id="Fill-23" fill="#FFFFFF" points="1.30706076 158.173077 60.3000764 177.714125 67.9671593 192.5 67.492547 170.021141 1.30706076 158.173077"></polyline>
            <path d="M4.87497574,158.646984 L60.2396526,177.091984 L60.2872644,177.184199 L67.4260701,191.031418 L66.9811967,169.829304 L4.87497574,158.646984 Z M67.9671593,193.173077 L59.8979382,177.521974 L1.30706076,158.002518 L1.42460257,157.5 L67.4677305,169.391026 L67.9671593,193.173077 L67.9671593,193.173077 Z" id="Fill-24" fill="#1D1D1B"></path>
            <polyline id="Fill-25" fill="#FFFFFF" points="91.4942529 154.134615 0.653530378 157.735878 1.70112851 159.289898 67.6687782 170.288462 91.4942529 154.134615"></polyline>
            <path d="M2.30237077,159.168122 L67.5606925,169.758007 L90.3633605,154.70957 L1.58671444,158.13553 L2.30237077,159.168122 Z M67.6704496,170.288462 L67.5765849,170.273291 L2.01680354,159.634357 L0.653530378,157.665251 L1.1109346,157.647552 L92.1477833,154.134615 L67.6704496,170.288462 L67.6704496,170.288462 Z" id="Fill-26" fill="#1D1D1B"></path>
            <path d="M323.153023,198.73124 C321.766412,198.778412 320.380298,198.81219 319.340215,198.82209 C318.300133,198.838396 317.607076,198.849462 317.607076,198.849462 C317.607076,198.849462 316.913522,198.860527 315.873936,198.877416 C314.833853,198.900128 313.447242,198.914687 312.060631,198.903622 C310.674517,198.901293 309.287906,198.898963 308.247823,198.897216 C307.208237,198.901293 306.51518,198.883822 306.51518,198.883822 L306.505747,199.880263 C306.505747,199.880263 307.200294,199.897734 308.241866,199.893658 C309.283934,199.895405 310.673027,199.897734 312.062617,199.900064 C313.45171,199.911129 314.840804,199.89657 315.882376,199.873857 C316.923947,199.856968 317.618494,199.845903 317.618494,199.845903 C317.618494,199.845903 318.313041,199.834838 319.354613,199.818532 C320.396184,199.808631 321.784781,199.774853 323.172882,199.727681 C325.949083,199.640325 328.72578,199.553551 328.72578,199.553551 L328.698971,198.557692 C328.698971,198.557692 325.925749,198.644466 323.153023,198.73124" id="Fill-27" fill="#000000"></path>
            <path d="M323.153023,198.73124 C321.766412,198.778412 320.380298,198.81219 319.340215,198.82209 C318.300133,198.838396 317.607076,198.849462 317.607076,198.849462 C317.607076,198.849462 316.913522,198.860527 315.873936,198.877416 C314.833853,198.900128 313.447242,198.914687 312.060631,198.903622 C310.674517,198.901293 309.287906,198.898963 308.247823,198.897216 C307.208237,198.901293 306.51518,198.883822 306.51518,198.883822 L306.505747,199.880263 C306.505747,199.880263 307.200294,199.897734 308.241866,199.893658 C309.283934,199.895405 310.673027,199.897734 312.062617,199.900064 C313.45171,199.911129 314.840804,199.89657 315.882376,199.873857 C316.923947,199.856968 317.618494,199.845903 317.618494,199.845903 C317.618494,199.845903 318.313041,199.834838 319.354613,199.818532 C320.396184,199.808631 321.784781,199.774853 323.172882,199.727681 C325.949083,199.640325 328.72578,199.553551 328.72578,199.553551 L328.698971,198.557692 C328.698971,198.557692 325.925749,198.644466 323.153023,198.73124 Z" id="Stroke-28" stroke="#FFFFFF" stroke-width="0.5"></path>
            <path d="M286.046416,198.54232 C285.010475,198.451552 284.319517,198.390552 284.319517,198.390552 C284.319517,198.390552 281.557671,198.134838 278.796322,197.879125 C276.043424,197.545332 273.291023,197.211538 273.291023,197.211538 L273.175698,198.03919 C273.175698,198.03919 275.940029,198.374448 278.703863,198.709217 C281.475651,198.965906 284.247935,199.222595 284.247935,199.222595 C284.247935,199.222595 284.940882,199.283595 285.981297,199.374852 C287.022705,199.440732 288.411582,199.528573 289.800458,199.616901 C292.577216,199.81991 295.359443,199.903846 295.359443,199.903846 L295.395731,199.069363 C295.395731,199.069363 292.620961,198.985914 289.853647,198.783393 C288.469244,198.695553 287.084842,198.608201 286.046416,198.54232" id="Fill-29" fill="#000000"></path>
            <path d="M286.046416,198.54232 C285.010475,198.451552 284.319517,198.390552 284.319517,198.390552 C284.319517,198.390552 281.557671,198.134838 278.796322,197.879125 C276.043424,197.545332 273.291023,197.211538 273.291023,197.211538 L273.175698,198.03919 C273.175698,198.03919 275.940029,198.374448 278.703863,198.709217 C281.475651,198.965906 284.247935,199.222595 284.247935,199.222595 C284.247935,199.222595 284.940882,199.283595 285.981297,199.374852 C287.022705,199.440732 288.411582,199.528573 289.800458,199.616901 C292.577216,199.81991 295.359443,199.903846 295.359443,199.903846 L295.395731,199.069363 C295.395731,199.069363 292.620961,198.985914 289.853647,198.783393 C288.469244,198.695553 287.084842,198.608201 286.046416,198.54232 Z" id="Stroke-30" stroke="#FFFFFF" stroke-width="0.5"></path>
            <path d="M259.943667,194.344621 C259.314343,194.19175 258.643394,194.028953 257.971949,193.866156 C256.629556,193.540065 255.287162,193.214471 254.280243,192.970275 C253.774306,192.857111 253.364006,192.721613 253.073129,192.640214 C252.783244,192.555837 252.617241,192.507197 252.617241,192.507197 C252.617241,192.507197 251.954716,192.314123 250.960185,192.023769 C249.968627,191.725969 248.634162,191.364639 247.320014,190.942756 C244.710547,190.038437 242.101081,189.134615 242.101081,189.134615 L241.80624,189.93123 C241.80624,189.93123 244.433545,190.841008 247.060851,191.751282 C248.383919,192.176143 249.725817,192.539458 250.724312,192.839243 C251.724789,193.131584 252.391774,193.326146 252.391774,193.326146 C252.391774,193.326146 252.558768,193.374787 252.850636,193.459659 C253.143495,193.541554 253.556272,193.678046 254.065182,193.791706 C255.077552,194.037391 256.427875,194.364971 257.777701,194.69255 C258.45311,194.85634 259.128023,195.02013 259.760816,195.173993 C260.396583,195.313959 260.994689,195.422656 261.505086,195.526886 C262.526871,195.729886 263.20773,195.865385 263.20773,195.865385 L263.372742,195.032042 C263.372742,195.032042 262.694856,194.897536 261.678522,194.696025 C261.171098,194.591795 260.575965,194.48409 259.943667,194.344621" id="Fill-31" fill="#000000"></path>
            <path d="M259.943667,194.344621 C259.314343,194.19175 258.643394,194.028953 257.971949,193.866156 C256.629556,193.540065 255.287162,193.214471 254.280243,192.970275 C253.774306,192.857111 253.364006,192.721613 253.073129,192.640214 C252.783244,192.555837 252.617241,192.507197 252.617241,192.507197 C252.617241,192.507197 251.954716,192.314123 250.960185,192.023769 C249.968627,191.725969 248.634162,191.364639 247.320014,190.942756 C244.710547,190.038437 242.101081,189.134615 242.101081,189.134615 L241.80624,189.93123 C241.80624,189.93123 244.433545,190.841008 247.060851,191.751282 C248.383919,192.176143 249.725817,192.539458 250.724312,192.839243 C251.724789,193.131584 252.391774,193.326146 252.391774,193.326146 C252.391774,193.326146 252.558768,193.374787 252.850636,193.459659 C253.143495,193.541554 253.556272,193.678046 254.065182,193.791706 C255.077552,194.037391 256.427875,194.364971 257.777701,194.69255 C258.45311,194.85634 259.128023,195.02013 259.760816,195.173993 C260.396583,195.313959 260.994689,195.422656 261.505086,195.526886 C262.526871,195.729886 263.20773,195.865385 263.20773,195.865385 L263.372742,195.032042 C263.372742,195.032042 262.694856,194.897536 261.678522,194.696025 C261.171098,194.591795 260.575965,194.48409 259.943667,194.344621 Z" id="Stroke-32" stroke="#FFFFFF" stroke-width="0.5"></path>
            <path d="M227.013448,182.358046 C225.788016,181.661159 224.547983,180.989548 223.641747,180.444832 C222.753132,179.869165 222.161058,179.485388 222.161058,179.485388 C222.161058,179.485388 221.568481,179.10161 220.680369,178.525944 C220.23581,178.238626 219.717745,177.902821 219.162424,177.542771 C218.885015,177.362747 218.598544,177.176016 218.307038,176.986706 C218.028119,176.779343 217.744165,176.568368 217.460714,176.357394 C215.193614,174.669081 212.92601,172.980769 212.92601,172.980769 L212.397373,173.677656 C212.397373,173.677656 214.683605,175.380411 216.97034,177.083167 C217.256308,177.295689 217.542276,177.508211 217.823712,177.717638 C218.117232,177.908495 218.406221,178.096257 218.686147,178.278345 C219.245999,178.640974 219.768595,178.979874 220.216175,179.269771 C221.112342,179.85008 221.709451,180.236952 221.709451,180.236952 C221.709451,180.236952 222.306559,180.623825 223.202726,181.204134 C224.116514,181.753493 225.366113,182.430778 226.601614,183.133339 C227.847185,183.816298 229.061038,184.56322 230.034738,184.994454 C230.992328,185.459733 231.63072,185.769231 231.63072,185.769231 L232.003284,184.973821 C232.003284,184.973821 231.369926,184.66587 230.419385,184.204718 C229.452733,183.777095 228.24895,183.035331 227.013448,182.358046" id="Fill-33" fill="#000000"></path>
            <path d="M227.013448,182.358046 C225.788016,181.661159 224.547983,180.989548 223.641747,180.444832 C222.753132,179.869165 222.161058,179.485388 222.161058,179.485388 C222.161058,179.485388 221.568481,179.10161 220.680369,178.525944 C220.23581,178.238626 219.717745,177.902821 219.162424,177.542771 C218.885015,177.362747 218.598544,177.176016 218.307038,176.986706 C218.028119,176.779343 217.744165,176.568368 217.460714,176.357394 C215.193614,174.669081 212.92601,172.980769 212.92601,172.980769 L212.397373,173.677656 C212.397373,173.677656 214.683605,175.380411 216.97034,177.083167 C217.256308,177.295689 217.542276,177.508211 217.823712,177.717638 C218.117232,177.908495 218.406221,178.096257 218.686147,178.278345 C219.245999,178.640974 219.768595,178.979874 220.216175,179.269771 C221.112342,179.85008 221.709451,180.236952 221.709451,180.236952 C221.709451,180.236952 222.306559,180.623825 223.202726,181.204134 C224.116514,181.753493 225.366113,182.430778 226.601614,183.133339 C227.847185,183.816298 229.061038,184.56322 230.034738,184.994454 C230.992328,185.459733 231.63072,185.769231 231.63072,185.769231 L232.003284,184.973821 C232.003284,184.973821 231.369926,184.66587 230.419385,184.204718 C229.452733,183.777095 228.24895,183.035331 227.013448,182.358046 Z" id="Stroke-34" stroke="#FFFFFF" stroke-width="0.5"></path>
            <path d="M201.313642,161.515411 C200.372483,160.458102 199.431324,159.400793 198.72533,158.60807 C198.361893,158.22077 198.109823,157.852628 197.912941,157.613413 C197.721527,157.368503 197.612148,157.228702 197.612148,157.228702 C197.612148,157.228702 195.863571,154.992406 194.114497,152.75611 C193.276254,151.609225 192.494192,150.417293 191.882662,149.543279 C191.278093,148.663051 190.875379,148.076923 190.875379,148.076923 L190.17734,148.583313 C190.17734,148.583313 190.583038,149.174101 191.191584,150.060024 C191.807588,150.940252 192.595616,152.140468 193.439825,153.296155 C195.201826,155.54902 196.963827,157.802403 196.963827,157.802403 C196.963827,157.802403 197.073703,157.94324 197.266609,158.189703 C197.464983,158.430472 197.719538,158.801721 198.085462,159.19161 C198.796924,159.991063 199.745541,161.056657 200.694157,162.12225 C201.650232,163.180594 202.566532,164.279326 203.353565,165.000594 C204.113751,165.750341 204.620376,166.25 204.620376,166.25 L205.208539,165.610023 C205.208539,165.610023 204.705891,165.114506 203.952168,164.370973 C203.171101,163.655917 202.262259,162.564953 201.313642,161.515411" id="Fill-35" fill="#000000"></path>
            <path d="M201.313642,161.515411 C200.372483,160.458102 199.431324,159.400793 198.72533,158.60807 C198.361893,158.22077 198.109823,157.852628 197.912941,157.613413 C197.721527,157.368503 197.612148,157.228702 197.612148,157.228702 C197.612148,157.228702 195.863571,154.992406 194.114497,152.75611 C193.276254,151.609225 192.494192,150.417293 191.882662,149.543279 C191.278093,148.663051 190.875379,148.076923 190.875379,148.076923 L190.17734,148.583313 C190.17734,148.583313 190.583038,149.174101 191.191584,150.060024 C191.807588,150.940252 192.595616,152.140468 193.439825,153.296155 C195.201826,155.54902 196.963827,157.802403 196.963827,157.802403 C196.963827,157.802403 197.073703,157.94324 197.266609,158.189703 C197.464983,158.430472 197.719538,158.801721 198.085462,159.19161 C198.796924,159.991063 199.745541,161.056657 200.694157,162.12225 C201.650232,163.180594 202.566532,164.279326 203.353565,165.000594 C204.113751,165.750341 204.620376,166.25 204.620376,166.25 L205.208539,165.610023 C205.208539,165.610023 204.705891,165.114506 203.952168,164.370973 C203.171101,163.655917 202.262259,162.564953 201.313642,161.515411 Z" id="Stroke-36" stroke="#FFFFFF" stroke-width="0.5"></path>
            <path d="M185.602627,138.887727 C185.602627,138.887727 184.268063,136.399798 182.933499,133.911359 C182.601224,133.28823 182.269445,132.665102 181.958031,132.081205 C181.676913,131.481004 181.414669,130.921055 181.189675,130.440589 C180.739688,129.480675 180.4392,128.840732 180.4392,128.840732 C180.4392,128.840732 180.139209,128.20028 179.689222,127.240367 C179.464228,126.76041 179.201488,126.20046 178.92037,125.600259 C178.641239,124.99904 178.326347,124.365721 178.073043,123.70387 C177.003207,121.082449 175.932873,118.461538 175.932873,118.461538 L175.146141,118.790171 C175.146141,118.790171 176.220945,121.42382 177.296245,124.057978 C177.551039,124.722886 177.86742,125.359262 178.148041,125.964048 C178.430649,126.567306 178.69488,127.130313 178.920867,127.612817 C179.373337,128.578336 179.675315,129.221845 179.675315,129.221845 C179.675315,129.221845 179.976796,129.865354 180.429267,130.830362 C180.65575,131.313376 180.919484,131.876383 181.202589,132.479641 C181.515494,133.067104 181.849259,133.693799 182.183024,134.320494 C183.525535,136.823709 184.868046,139.326923 184.868046,139.326923 L185.602627,138.887727" id="Fill-37" fill="#000000"></path>
            <path d="M185.602627,138.887727 C185.602627,138.887727 184.268063,136.399798 182.933499,133.911359 C182.601224,133.28823 182.269445,132.665102 181.958031,132.081205 C181.676913,131.481004 181.414669,130.921055 181.189675,130.440589 C180.739688,129.480675 180.4392,128.840732 180.4392,128.840732 C180.4392,128.840732 180.139209,128.20028 179.689222,127.240367 C179.464228,126.76041 179.201488,126.20046 178.92037,125.600259 C178.641239,124.99904 178.326347,124.365721 178.073043,123.70387 C177.003207,121.082449 175.932873,118.461538 175.932873,118.461538 L175.146141,118.790171 C175.146141,118.790171 176.220945,121.42382 177.296245,124.057978 C177.551039,124.722886 177.86742,125.359262 178.148041,125.964048 C178.430649,126.567306 178.69488,127.130313 178.920867,127.612817 C179.373337,128.578336 179.675315,129.221845 179.675315,129.221845 C179.675315,129.221845 179.976796,129.865354 180.429267,130.830362 C180.65575,131.313376 180.919484,131.876383 181.202589,132.479641 C181.515494,133.067104 181.849259,133.693799 182.183024,134.320494 C183.525535,136.823709 184.868046,139.326923 184.868046,139.326923 L185.602627,138.887727 Z" id="Stroke-38" stroke="#FFFFFF" stroke-width="0.5"></path>
            <path d="M328.186025,22.1175058 C327.034181,22.9508189 325.928892,23.8507138 325.0794,24.4962453 C324.235916,25.1500996 323.67376,25.5865226 323.67376,25.5865226 C323.67376,25.5865226 323.113106,26.0250263 322.272626,26.6830419 C321.456674,27.3733081 320.368404,28.2934896 319.280635,29.2136712 C318.194367,30.1364535 317.093583,31.0415501 316.317678,31.7807123 C315.528256,32.5027089 315.001642,32.9838666 315.001642,32.9838666 L315.5653,33.6538462 C315.5653,33.6538462 316.089411,33.1747692 316.875829,32.4558936 C317.647729,31.7198524 318.743007,30.8199575 319.823768,29.9018567 C320.906031,28.9863567 321.988794,28.0708567 322.800742,27.3842317 C323.636217,26.7298572 324.193867,26.2934342 324.193867,26.2934342 C324.193867,26.2934342 324.75302,25.8601322 325.591498,25.2099192 C326.436484,24.5680288 327.535266,23.6728155 328.680102,22.844184 C330.990297,21.2186513 333.300493,19.5931186 333.300493,19.5931186 L332.834949,18.8461538 C332.834949,18.8461538 330.510237,20.4820899 328.186025,22.1175058" id="Fill-39" fill="#000000"></path>
            <path d="M328.186025,22.1175058 C327.034181,22.9508189 325.928892,23.8507138 325.0794,24.4962453 C324.235916,25.1500996 323.67376,25.5865226 323.67376,25.5865226 C323.67376,25.5865226 323.113106,26.0250263 322.272626,26.6830419 C321.456674,27.3733081 320.368404,28.2934896 319.280635,29.2136712 C318.194367,30.1364535 317.093583,31.0415501 316.317678,31.7807123 C315.528256,32.5027089 315.001642,32.9838666 315.001642,32.9838666 L315.5653,33.6538462 C315.5653,33.6538462 316.089411,33.1747692 316.875829,32.4558936 C317.647729,31.7198524 318.743007,30.8199575 319.823768,29.9018567 C320.906031,28.9863567 321.988794,28.0708567 322.800742,27.3842317 C323.636217,26.7298572 324.193867,26.2934342 324.193867,26.2934342 C324.193867,26.2934342 324.75302,25.8601322 325.591498,25.2099192 C326.436484,24.5680288 327.535266,23.6728155 328.680102,22.844184 C330.990297,21.2186513 333.300493,19.5931186 333.300493,19.5931186 L332.834949,18.8461538 C332.834949,18.8461538 330.510237,20.4820899 328.186025,22.1175058 Z" id="Stroke-40" stroke="#FFFFFF" stroke-width="0.5"></path>
            <path d="M344.383872,13.3044572 C345.28968,12.7787407 346.556512,12.1985877 347.817852,11.6068416 C349.078193,11.0135834 350.338534,10.4203253 351.28379,9.97525562 C351.759164,9.75952538 352.169624,9.61385706 352.450254,9.49591108 C352.733382,9.38250149 352.894669,9.31798404 352.894669,9.31798404 C352.894669,9.31798404 353.541318,9.05991421 354.510542,8.67180139 C355.485259,8.29780176 356.762079,7.73680231 358.076349,7.28064373 C360.71937,6.40965807 363.36289,5.53816837 363.36289,5.53816837 L363.118711,4.71153846 C363.118711,4.71153846 360.454219,5.59008476 357.789726,6.46812702 C356.46497,6.92831794 355.178164,7.49284568 354.195956,7.87037361 C353.219242,8.26100665 352.5676,8.52159668 352.5676,8.52159668 C352.5676,8.52159668 352.404814,8.58661818 352.119689,8.70053182 C351.837062,8.81948588 351.423106,8.96666632 350.943737,9.1839087 C349.991491,9.63200259 348.721662,10.2297971 347.451834,10.8275917 C346.181007,11.4238741 344.904687,12.0085636 343.992887,12.5378083 C343.067105,13.0393308 342.449918,13.373511 342.449918,13.373511 L342.852388,14.1346154 C342.852388,14.1346154 343.465082,13.8024513 344.383872,13.3044572" id="Fill-41" fill="#000000"></path>
            <path d="M344.383872,13.3044572 C345.28968,12.7787407 346.556512,12.1985877 347.817852,11.6068416 C349.078193,11.0135834 350.338534,10.4203253 351.28379,9.97525562 C351.759164,9.75952538 352.169624,9.61385706 352.450254,9.49591108 C352.733382,9.38250149 352.894669,9.31798404 352.894669,9.31798404 C352.894669,9.31798404 353.541318,9.05991421 354.510542,8.67180139 C355.485259,8.29780176 356.762079,7.73680231 358.076349,7.28064373 C360.71937,6.40965807 363.36289,5.53816837 363.36289,5.53816837 L363.118711,4.71153846 C363.118711,4.71153846 360.454219,5.59008476 357.789726,6.46812702 C356.46497,6.92831794 355.178164,7.49284568 354.195956,7.87037361 C353.219242,8.26100665 352.5676,8.52159668 352.5676,8.52159668 C352.5676,8.52159668 352.404814,8.58661818 352.119689,8.70053182 C351.837062,8.81948588 351.423106,8.96666632 350.943737,9.1839087 C349.991491,9.63200259 348.721662,10.2297971 347.451834,10.8275917 C346.181007,11.4238741 344.904687,12.0085636 343.992887,12.5378083 C343.067105,13.0393308 342.449918,13.373511 342.449918,13.373511 L342.852388,14.1346154 C342.852388,14.1346154 343.465082,13.8024513 344.383872,13.3044572 Z" id="Stroke-42" stroke="#FFFFFF" stroke-width="0.5"></path>
            <path d="M307.878124,40.3846154 C307.878124,40.3846154 305.930711,42.4400871 303.983298,44.4955588 C302.997029,45.5108623 302.070863,46.5857373 301.356039,47.3725975 C300.646635,48.1641199 300.173699,48.6919741 300.173699,48.6919741 C300.173699,48.6919741 298.264712,50.7868147 296.441938,52.9640192 C295.520698,54.0430383 294.599457,55.1220573 293.908281,55.9311921 C293.232376,56.7543132 292.781609,57.3023699 292.781609,57.3023699 L293.41761,57.8846154 C293.41761,57.8846154 293.866899,57.3370767 294.541326,56.5165456 C295.230531,55.7094829 296.149308,54.633572 297.068085,53.557143 C298.886426,51.3861546 300.788516,49.2980482 300.788516,49.2980482 C300.788516,49.2980482 301.259974,48.771748 301.967408,47.9828157 C302.679768,47.1990635 303.603471,46.1267786 304.585799,45.1156191 C306.525822,43.0673996 308.466338,41.0191801 308.466338,41.0191801 L307.878124,40.3846154" id="Fill-43" fill="#000000"></path>
            <path d="M307.878124,40.3846154 C307.878124,40.3846154 305.930711,42.4400871 303.983298,44.4955588 C302.997029,45.5108623 302.070863,46.5857373 301.356039,47.3725975 C300.646635,48.1641199 300.173699,48.6919741 300.173699,48.6919741 C300.173699,48.6919741 298.264712,50.7868147 296.441938,52.9640192 C295.520698,54.0430383 294.599457,55.1220573 293.908281,55.9311921 C293.232376,56.7543132 292.781609,57.3023699 292.781609,57.3023699 L293.41761,57.8846154 C293.41761,57.8846154 293.866899,57.3370767 294.541326,56.5165456 C295.230531,55.7094829 296.149308,54.633572 297.068085,53.557143 C298.886426,51.3861546 300.788516,49.2980482 300.788516,49.2980482 C300.788516,49.2980482 301.259974,48.771748 301.967408,47.9828157 C302.679768,47.1990635 303.603471,46.1267786 304.585799,45.1156191 C306.525822,43.0673996 308.466338,41.0191801 308.466338,41.0191801 L307.878124,40.3846154 Z" id="Stroke-44" stroke="#FFFFFF" stroke-width="0.5"></path>
            <polyline id="Fill-45" fill="#000000" points="258.449867 101.370877 251.609195 110.528165 252.303486 111.057692 265.986864 92.7400407 265.292064 92.2115385 258.449867 101.370877"></polyline>
            <polygon id="Stroke-46" stroke="#FFFFFF" stroke-width="0.5" points="258.449867 101.370877 251.609195 110.528165 252.303486 111.057692 265.986864 92.7400407 265.292064 92.2115385"></polygon>
            <path d="M279.318744,74.5861745 C279.318744,74.5861745 279.745383,74.034104 280.384599,73.2054953 C281.033208,72.3839258 281.897361,71.288835 282.762009,70.1932415 C283.628139,69.1001619 284.494764,68.0065795 285.144362,67.1865183 C285.805825,66.3760104 286.246305,65.8355041 286.246305,65.8355041 L285.593741,65.2884615 C285.593741,65.2884615 285.151777,65.8299734 284.489326,66.6419897 C283.838739,67.4635592 282.970631,68.55865 282.103018,69.6542436 C281.236887,70.7508428 280.371251,71.8479448 279.722147,72.6705198 C279.081448,73.5001341 278.65481,74.053713 278.65481,74.053713 C278.65481,74.053713 276.94875,76.267526 275.243185,78.4818419 C273.555911,80.710236 271.868637,82.9381273 271.868637,82.9381273 L272.539987,83.4615385 C272.539987,83.4615385 274.225778,81.2351555 275.911568,79.0092754 C277.615156,76.7974736 279.318744,74.5861745 279.318744,74.5861745" id="Fill-47" fill="#000000"></path>
            <path d="M279.318744,74.5861745 C279.318744,74.5861745 279.745383,74.034104 280.384599,73.2054953 C281.033208,72.3839258 281.897361,71.288835 282.762009,70.1932415 C283.628139,69.1001619 284.494764,68.0065795 285.144362,67.1865183 C285.805825,66.3760104 286.246305,65.8355041 286.246305,65.8355041 L285.593741,65.2884615 C285.593741,65.2884615 285.151777,65.8299734 284.489326,66.6419897 C283.838739,67.4635592 282.970631,68.55865 282.103018,69.6542436 C281.236887,70.7508428 280.371251,71.8479448 279.722147,72.6705198 C279.081448,73.5001341 278.65481,74.053713 278.65481,74.053713 C278.65481,74.053713 276.94875,76.267526 275.243185,78.4818419 C273.555911,80.710236 271.868637,82.9381273 271.868637,82.9381273 L272.539987,83.4615385 C272.539987,83.4615385 274.225778,81.2351555 275.911568,79.0092754 C277.615156,76.7974736 279.318744,74.5861745 279.318744,74.5861745 Z" id="Stroke-48" stroke="#FFFFFF" stroke-width="0.5"></path>
            <path d="M245.727422,119.664311 L245.06499,119.134615 C245.06499,119.134615 243.380757,121.361666 241.696035,123.589223 C240.856366,124.704771 240.007885,125.812732 239.36112,126.63586 C238.719251,127.462024 238.291339,128.012969 238.291339,128.012969 C238.291339,128.012969 237.862936,128.563913 237.221067,129.390583 C236.582626,130.220288 235.721904,131.31813 234.844537,132.401806 C233.972555,133.490036 233.100572,134.578265 232.446463,135.394817 C231.796271,136.214404 231.349754,136.749159 231.349754,136.749159 L231.989664,137.307692 C231.989664,137.307692 232.437161,136.771419 233.088822,135.950315 C233.74391,135.132751 234.617851,134.041992 235.491302,132.951739 C236.370628,131.865533 237.233307,130.765668 237.872239,129.934951 C238.515577,129.107269 238.944468,128.555313 238.944468,128.555313 C238.944468,128.555313 239.372871,128.003356 240.016208,127.175675 C240.663952,126.351028 241.513903,125.24155 242.35455,124.124484 C244.041231,121.894398 245.727422,119.664311 245.727422,119.664311" id="Fill-49" fill="#000000"></path>
            <path d="M245.727422,119.664311 L245.06499,119.134615 C245.06499,119.134615 243.380757,121.361666 241.696035,123.589223 C240.856366,124.704771 240.007885,125.812732 239.36112,126.63586 C238.719251,127.462024 238.291339,128.012969 238.291339,128.012969 C238.291339,128.012969 237.862936,128.563913 237.221067,129.390583 C236.582626,130.220288 235.721904,131.31813 234.844537,132.401806 C233.972555,133.490036 233.100572,134.578265 232.446463,135.394817 C231.796271,136.214404 231.349754,136.749159 231.349754,136.749159 L231.989664,137.307692 C231.989664,137.307692 232.437161,136.771419 233.088822,135.950315 C233.74391,135.132751 234.617851,134.041992 235.491302,132.951739 C236.370628,131.865533 237.233307,130.765668 237.872239,129.934951 C238.515577,129.107269 238.944468,128.555313 238.944468,128.555313 C238.944468,128.555313 239.372871,128.003356 240.016208,127.175675 C240.663952,126.351028 241.513903,125.24155 242.35455,124.124484 C244.041231,121.894398 245.727422,119.664311 245.727422,119.664311 Z" id="Stroke-50" stroke="#FFFFFF" stroke-width="0.5"></path>
            <path d="M200.03319,170.040772 C199.6231,170.368069 199.152986,170.760627 198.633943,171.161653 C198.106325,171.55172 197.543902,171.96819 196.980975,172.38466 C195.85613,173.217101 194.73078,174.05004 193.886894,174.674247 C193.470752,174.99457 193.098494,175.225721 192.846286,175.399582 C192.592061,175.570454 192.446789,175.668095 192.446789,175.668095 C192.446789,175.668095 191.865704,176.058162 190.994075,176.643511 C190.117401,177.222384 188.969858,178.025932 187.787509,178.775179 C185.388007,180.220867 182.988506,181.666555 182.988506,181.666555 L183.421798,182.403846 C183.421798,182.403846 185.837441,180.948195 188.253084,179.493041 C189.443503,178.738314 190.598109,177.930283 191.480331,177.347923 C192.357508,176.758588 192.942125,176.366031 192.942125,176.366031 C192.942125,176.366031 193.088405,176.267393 193.344144,176.095525 C193.597864,175.920667 193.972645,175.688022 194.391309,175.366204 C195.239735,174.738013 196.371642,173.90059 197.503549,173.063166 C198.068998,172.644206 198.634951,172.225743 199.165596,171.833186 C199.687161,171.429668 200.159798,171.035616 200.572409,170.706824 C201.393597,170.044259 201.940887,169.602382 201.940887,169.602382 L201.394605,168.942308 C201.394605,168.942308 200.850342,169.381693 200.03319,170.040772" id="Fill-51" fill="#000000"></path>
            <path d="M200.03319,170.040772 C199.6231,170.368069 199.152986,170.760627 198.633943,171.161653 C198.106325,171.55172 197.543902,171.96819 196.980975,172.38466 C195.85613,173.217101 194.73078,174.05004 193.886894,174.674247 C193.470752,174.99457 193.098494,175.225721 192.846286,175.399582 C192.592061,175.570454 192.446789,175.668095 192.446789,175.668095 C192.446789,175.668095 191.865704,176.058162 190.994075,176.643511 C190.117401,177.222384 188.969858,178.025932 187.787509,178.775179 C185.388007,180.220867 182.988506,181.666555 182.988506,181.666555 L183.421798,182.403846 C183.421798,182.403846 185.837441,180.948195 188.253084,179.493041 C189.443503,178.738314 190.598109,177.930283 191.480331,177.347923 C192.357508,176.758588 192.942125,176.366031 192.942125,176.366031 C192.942125,176.366031 193.088405,176.267393 193.344144,176.095525 C193.597864,175.920667 193.972645,175.688022 194.391309,175.366204 C195.239735,174.738013 196.371642,173.90059 197.503549,173.063166 C198.068998,172.644206 198.634951,172.225743 199.165596,171.833186 C199.687161,171.429668 200.159798,171.035616 200.572409,170.706824 C201.393597,170.044259 201.940887,169.602382 201.940887,169.602382 L201.394605,168.942308 C201.394605,168.942308 200.850342,169.381693 200.03319,170.040772 Z" id="Stroke-52" stroke="#FFFFFF" stroke-width="0.5"></path>
            <path d="M217.776964,154.270458 C217.776964,154.270458 218.271408,153.764553 219.013074,153.005696 C219.735646,152.228553 220.699409,151.192362 221.663173,150.156172 C223.6108,148.102584 225.46798,145.965695 225.46798,145.965695 L224.828821,145.384615 C224.828821,145.384615 222.977168,147.515409 221.035571,149.561886 C220.074822,150.595029 219.114576,151.627664 218.394014,152.402267 C217.655363,153.158585 217.162426,153.662966 217.162426,153.662966 C217.162426,153.662966 215.182138,155.669823 213.202352,157.676681 C211.165785,159.624617 209.129721,161.572554 209.129721,161.572554 L209.712602,162.211538 C209.712602,162.211538 211.757208,160.255475 213.801815,158.299411 C215.789641,156.284934 217.776964,154.270458 217.776964,154.270458" id="Fill-53" fill="#000000"></path>
            <path d="M217.776964,154.270458 C217.776964,154.270458 218.271408,153.764553 219.013074,153.005696 C219.735646,152.228553 220.699409,151.192362 221.663173,150.156172 C223.6108,148.102584 225.46798,145.965695 225.46798,145.965695 L224.828821,145.384615 C224.828821,145.384615 222.977168,147.515409 221.035571,149.561886 C220.074822,150.595029 219.114576,151.627664 218.394014,152.402267 C217.655363,153.158585 217.162426,153.662966 217.162426,153.662966 C217.162426,153.662966 215.182138,155.669823 213.202352,157.676681 C211.165785,159.624617 209.129721,161.572554 209.129721,161.572554 L209.712602,162.211538 C209.712602,162.211538 211.757208,160.255475 213.801815,158.299411 C215.789641,156.284934 217.776964,154.270458 217.776964,154.270458 Z" id="Stroke-54" stroke="#FFFFFF" stroke-width="0.5"></path>
            <path d="M171.946791,187.856723 C171.035852,188.335054 169.749878,188.801339 168.490797,189.331871 C167.223892,189.842325 165.966278,190.379381 165.00742,190.738757 C164.037317,191.065508 163.390907,191.283342 163.390907,191.283342 C163.390907,191.283342 162.744008,191.500674 161.773904,191.827425 C161.288852,191.99055 160.723122,192.18128 160.116807,192.385562 C159.81316,192.48695 159.499735,192.591852 159.181419,192.698259 C158.857237,192.78459 158.527675,192.871924 158.198114,192.959258 C155.562111,193.656929 152.926108,194.354099 152.926108,194.354099 L153.108492,195.192308 C153.108492,195.192308 155.766987,194.489115 158.425482,193.785923 C158.757488,193.697585 159.089494,193.609247 159.416611,193.522414 C159.73786,193.415003 160.05373,193.3096 160.359822,193.207208 C160.971026,193.00142 161.541647,192.809184 162.03061,192.644553 C163.009026,192.315293 163.660815,192.095953 163.660815,192.095953 C163.660815,192.095953 164.313092,191.876111 165.291019,191.546851 C166.2577,191.184463 167.525583,190.643392 168.802756,190.12842 C170.072105,189.593874 171.368348,189.123071 172.286132,188.641728 C173.218097,188.193512 173.83908,187.894869 173.83908,187.894869 L173.487516,187.115385 C173.487516,187.115385 172.871422,187.41202 171.946791,187.856723" id="Fill-55" fill="#000000"></path>
            <path d="M171.946791,187.856723 C171.035852,188.335054 169.749878,188.801339 168.490797,189.331871 C167.223892,189.842325 165.966278,190.379381 165.00742,190.738757 C164.037317,191.065508 163.390907,191.283342 163.390907,191.283342 C163.390907,191.283342 162.744008,191.500674 161.773904,191.827425 C161.288852,191.99055 160.723122,192.18128 160.116807,192.385562 C159.81316,192.48695 159.499735,192.591852 159.181419,192.698259 C158.857237,192.78459 158.527675,192.871924 158.198114,192.959258 C155.562111,193.656929 152.926108,194.354099 152.926108,194.354099 L153.108492,195.192308 C153.108492,195.192308 155.766987,194.489115 158.425482,193.785923 C158.757488,193.697585 159.089494,193.609247 159.416611,193.522414 C159.73786,193.415003 160.05373,193.3096 160.359822,193.207208 C160.971026,193.00142 161.541647,192.809184 162.03061,192.644553 C163.009026,192.315293 163.660815,192.095953 163.660815,192.095953 C163.660815,192.095953 164.313092,191.876111 165.291019,191.546851 C166.2577,191.184463 167.525583,190.643392 168.802756,190.12842 C170.072105,189.593874 171.368348,189.123071 172.286132,188.641728 C173.218097,188.193512 173.83908,187.894869 173.83908,187.894869 L173.487516,187.115385 C173.487516,187.115385 172.871422,187.41202 171.946791,187.856723 Z" id="Stroke-56" stroke="#FFFFFF" stroke-width="0.5"></path>
            <path d="M140.003973,196.133654 C138.979882,196.342728 137.597236,196.38618 136.21955,196.499533 C134.840871,196.600292 133.462193,196.70168 132.428184,196.777249 C131.911923,196.832666 131.479475,196.793622 131.177455,196.80055 C130.875435,196.798031 130.702852,196.796771 130.702852,196.796771 C130.702852,196.796771 127.940536,196.773471 125.178219,196.7508 C123.798549,196.680899 122.421358,196.522204 121.387349,196.442857 C120.353836,196.352174 119.664497,196.291719 119.664497,196.291719 L119.596059,197.365427 C119.596059,197.365427 120.289862,197.426512 121.330814,197.518454 C122.372261,197.598431 123.758875,197.757755 125.148464,197.827657 C127.931609,197.850957 130.714754,197.874257 130.714754,197.874257 C130.714754,197.874257 130.888329,197.875517 131.192828,197.878036 C131.496832,197.871109 131.932256,197.909523 132.453476,197.854106 C133.49542,197.777907 134.885009,197.676519 136.274598,197.574501 C137.663195,197.460518 139.056255,197.415806 140.089272,197.205473 C141.125265,197.043629 141.816092,196.935314 141.816092,196.935314 L141.716906,195.865385 C141.716906,195.865385 141.032031,195.972441 140.003973,196.133654" id="Fill-57" fill="#000000"></path>
            <path d="M140.003973,196.133654 C138.979882,196.342728 137.597236,196.38618 136.21955,196.499533 C134.840871,196.600292 133.462193,196.70168 132.428184,196.777249 C131.911923,196.832666 131.479475,196.793622 131.177455,196.80055 C130.875435,196.798031 130.702852,196.796771 130.702852,196.796771 C130.702852,196.796771 127.940536,196.773471 125.178219,196.7508 C123.798549,196.680899 122.421358,196.522204 121.387349,196.442857 C120.353836,196.352174 119.664497,196.291719 119.664497,196.291719 L119.596059,197.365427 C119.596059,197.365427 120.289862,197.426512 121.330814,197.518454 C122.372261,197.598431 123.758875,197.757755 125.148464,197.827657 C127.931609,197.850957 130.714754,197.874257 130.714754,197.874257 C130.714754,197.874257 130.888329,197.875517 131.192828,197.878036 C131.496832,197.871109 131.932256,197.909523 132.453476,197.854106 C133.49542,197.777907 134.885009,197.676519 136.274598,197.574501 C137.663195,197.460518 139.056255,197.415806 140.089272,197.205473 C141.125265,197.043629 141.816092,196.935314 141.816092,196.935314 L141.716906,195.865385 C141.716906,195.865385 141.032031,195.972441 140.003973,196.133654 Z" id="Stroke-58" stroke="#FFFFFF" stroke-width="0.5"></path>
            <path d="M101.54715,193.36294 C100.903715,193.190187 100.303379,193.028472 99.7887334,192.890489 C98.7594414,192.613973 98.0729086,192.429629 98.0729086,192.429629 C98.0729086,192.429629 97.3868829,192.245837 96.3575908,191.969321 C95.8429448,191.830787 95.2421019,191.669623 94.5986676,191.49687 C93.9562473,191.321908 93.2656583,191.155226 92.5928156,190.915689 C89.8857268,190.024876 87.1786379,189.134615 87.1786379,189.134615 L86.9195402,190.035915 C86.9195402,190.035915 89.6398121,190.930591 92.359577,191.825267 C93.0354619,192.065908 93.7301073,192.233143 94.3760768,192.40976 C95.0230604,192.583617 95.6264385,192.745332 96.1441268,192.884418 C97.1789963,193.16259 97.8690784,193.347486 97.8690784,193.347486 C97.8690784,193.347486 98.5586533,193.532934 99.5935229,193.810554 C100.111211,193.94964 100.715096,194.111907 101.361573,194.285213 C102.016162,194.422091 102.71385,194.568352 103.412044,194.714062 C106.20533,195.289723 108.999123,195.865385 108.999123,195.865385 L109.139573,194.933729 C109.139573,194.933729 106.362513,194.361379 103.585452,193.789029 C102.891314,193.643872 102.197683,193.498715 101.54715,193.36294" id="Fill-59" fill="#000000"></path>
            <path d="M101.54715,193.36294 C100.903715,193.190187 100.303379,193.028472 99.7887334,192.890489 C98.7594414,192.613973 98.0729086,192.429629 98.0729086,192.429629 C98.0729086,192.429629 97.3868829,192.245837 96.3575908,191.969321 C95.8429448,191.830787 95.2421019,191.669623 94.5986676,191.49687 C93.9562473,191.321908 93.2656583,191.155226 92.5928156,190.915689 C89.8857268,190.024876 87.1786379,189.134615 87.1786379,189.134615 L86.9195402,190.035915 C86.9195402,190.035915 89.6398121,190.930591 92.359577,191.825267 C93.0354619,192.065908 93.7301073,192.233143 94.3760768,192.40976 C95.0230604,192.583617 95.6264385,192.745332 96.1441268,192.884418 C97.1789963,193.16259 97.8690784,193.347486 97.8690784,193.347486 C97.8690784,193.347486 98.5586533,193.532934 99.5935229,193.810554 C100.111211,193.94964 100.715096,194.111907 101.361573,194.285213 C102.016162,194.422091 102.71385,194.568352 103.412044,194.714062 C106.20533,195.289723 108.999123,195.865385 108.999123,195.865385 L109.139573,194.933729 C109.139573,194.933729 106.362513,194.361379 103.585452,193.789029 C102.891314,193.643872 102.197683,193.498715 101.54715,193.36294 Z" id="Stroke-60" stroke="#FFFFFF" stroke-width="0.5"></path>
            <path d="M392.994849,196.538462 C391.953044,196.550639 390.56364,196.567384 389.174733,196.584128 C387.785329,196.603917 386.396422,196.623199 385.354617,196.637406 C384.312813,196.663791 383.618607,196.681043 383.618607,196.681043 C383.618607,196.681043 380.841786,196.753095 378.064468,196.825655 C375.28864,196.921555 372.512315,197.016947 372.512315,197.016947 L372.543103,197.884615 C372.543103,197.884615 375.316945,197.789223 378.09029,197.693323 C380.863635,197.621271 383.637477,197.549219 383.637477,197.549219 C383.637477,197.549219 384.331186,197.531459 385.371004,197.505581 C386.411319,197.490867 387.79824,197.471585 389.185161,197.452304 C390.572082,197.435559 391.959003,197.418815 392.998821,197.406637 C394.039136,197.409174 394.732348,197.411204 394.732348,197.411204 L394.731355,196.543028 C394.731355,196.543028 394.036653,196.540999 392.994849,196.538462" id="Fill-61" fill="#000000"></path>
            <path d="M392.994849,196.538462 C391.953044,196.550639 390.56364,196.567384 389.174733,196.584128 C387.785329,196.603917 386.396422,196.623199 385.354617,196.637406 C384.312813,196.663791 383.618607,196.681043 383.618607,196.681043 C383.618607,196.681043 380.841786,196.753095 378.064468,196.825655 C375.28864,196.921555 372.512315,197.016947 372.512315,197.016947 L372.543103,197.884615 C372.543103,197.884615 375.316945,197.789223 378.09029,197.693323 C380.863635,197.621271 383.637477,197.549219 383.637477,197.549219 C383.637477,197.549219 384.331186,197.531459 385.371004,197.505581 C386.411319,197.490867 387.79824,197.471585 389.185161,197.452304 C390.572082,197.435559 391.959003,197.418815 392.998821,197.406637 C394.039136,197.409174 394.732348,197.411204 394.732348,197.411204 L394.731355,196.543028 C394.731355,196.543028 394.036653,196.540999 392.994849,196.538462 Z" id="Stroke-62" stroke="#FFFFFF" stroke-width="0.5"></path>
            <polyline id="Fill-63" fill="#000000" points="350.272424 197.755806 339.182266 198.300073 339.218012 199.230769 350.311645 198.685958 361.402299 198.141691 361.365064 197.211538 350.272424 197.755806"></polyline>
            <polygon id="Stroke-64" stroke="#FFFFFF" stroke-width="0.5" points="350.272424 197.755806 339.182266 198.300073 339.218012 199.230769 350.311645 198.685958 361.402299 198.141691 361.365064 197.211538"></polygon>
            <path d="M378.75344,140.673077 L379.047619,139.856678 C379.047619,139.856678 376.427253,138.828695 373.806887,137.800712 C373.152427,137.54194 372.497966,137.283168 371.884377,137.040633 C371.283908,136.766132 370.723807,136.509898 370.243432,136.290703 C369.283186,135.851298 368.642854,135.558531 368.642854,135.558531 C368.642854,135.558531 368.002522,135.265764 367.042276,134.826867 C366.561901,134.607165 366.001295,134.35093 365.401331,134.076937 C364.801871,133.799899 364.154475,133.522353 363.536345,133.182399 C361.038091,131.879407 358.539837,130.576923 358.539837,130.576923 L358.134647,131.343598 C358.134647,131.343598 360.645011,132.652678 363.155375,133.961758 C363.776532,134.302728 364.427461,134.582302 365.029948,134.860355 C365.633445,135.136378 366.196574,135.394135 366.679472,135.614852 C367.645268,136.056286 368.289132,136.350575 368.289132,136.350575 C368.289132,136.350575 368.932492,136.644865 369.898288,137.086299 C370.381187,137.307016 370.944315,137.564265 371.547812,137.840288 C372.164933,138.084346 372.82343,138.344639 373.481423,138.604933 C376.117431,139.639005 378.75344,140.673077 378.75344,140.673077" id="Fill-65" fill="#000000"></path>
            <path d="M378.75344,140.673077 L379.047619,139.856678 C379.047619,139.856678 376.427253,138.828695 373.806887,137.800712 C373.152427,137.54194 372.497966,137.283168 371.884377,137.040633 C371.283908,136.766132 370.723807,136.509898 370.243432,136.290703 C369.283186,135.851298 368.642854,135.558531 368.642854,135.558531 C368.642854,135.558531 368.002522,135.265764 367.042276,134.826867 C366.561901,134.607165 366.001295,134.35093 365.401331,134.076937 C364.801871,133.799899 364.154475,133.522353 363.536345,133.182399 C361.038091,131.879407 358.539837,130.576923 358.539837,130.576923 L358.134647,131.343598 C358.134647,131.343598 360.645011,132.652678 363.155375,133.961758 C363.776532,134.302728 364.427461,134.582302 365.029948,134.860355 C365.633445,135.136378 366.196574,135.394135 366.679472,135.614852 C367.645268,136.056286 368.289132,136.350575 368.289132,136.350575 C368.289132,136.350575 368.932492,136.644865 369.898288,137.086299 C370.381187,137.307016 370.944315,137.564265 371.547812,137.840288 C372.164933,138.084346 372.82343,138.344639 373.481423,138.604933 C376.117431,139.639005 378.75344,140.673077 378.75344,140.673077 Z" id="Stroke-66" stroke="#FFFFFF" stroke-width="0.5"></path>
            <path d="M375.027968,2.38014216 C375.53867,2.28649249 376.133992,2.17699443 376.772619,2.05981229 C377.417219,1.98201103 378.104626,1.89892697 378.792034,1.81632317 C380.167844,1.65207607 381.543156,1.48782897 382.575014,1.36488378 C383.091192,1.3053322 383.520261,1.24674113 383.821904,1.22032712 C384.124543,1.20351821 384.297764,1.19343286 384.297764,1.19343286 C384.297764,1.19343286 387.065312,1.03686984 389.832861,0.880306814 C390.178805,0.860616373 390.524749,0.840925931 390.865217,0.821715744 C391.206681,0.822676253 391.542171,0.823156508 391.867209,0.823636763 C392.517284,0.826998546 393.123557,0.829880074 393.643716,0.832281347 C394.683538,0.837083894 395.376421,0.839965422 395.376421,0.839965422 L395.385878,0.0187299322 C395.385878,0.0187299322 394.688018,0.0153681495 393.640232,0.0105656028 C393.116588,0.00816432943 392.505836,0.00528280139 391.851281,0.00240127336 C391.523754,0.00144076402 391.185775,0.000960509344 390.84232,0 C390.498865,0.0196904416 390.150433,0.0393808831 389.802,0.0590713247 C387.013048,0.217075112 384.224593,0.375078899 384.224593,0.375078899 C384.224593,0.375078899 384.050377,0.384683992 383.745249,0.401973161 C383.441118,0.428867422 383.008564,0.487458492 382.488404,0.547010072 C381.448582,0.671396032 380.062319,0.836603639 378.675558,1.0022915 C377.982675,1.08585581 377.289792,1.16990038 376.640215,1.24818189 C375.99661,1.36632454 375.396311,1.47630286 374.881626,1.57043278 C373.852258,1.75965312 373.165846,1.88547984 373.165846,1.88547984 L373.326125,2.69230769 C373.326125,2.69230769 374.007061,2.56744148 375.027968,2.38014216" id="Fill-67" fill="#000000"></path>
            <path d="M375.027968,2.38014216 C375.53867,2.28649249 376.133992,2.17699443 376.772619,2.05981229 C377.417219,1.98201103 378.104626,1.89892697 378.792034,1.81632317 C380.167844,1.65207607 381.543156,1.48782897 382.575014,1.36488378 C383.091192,1.3053322 383.520261,1.24674113 383.821904,1.22032712 C384.124543,1.20351821 384.297764,1.19343286 384.297764,1.19343286 C384.297764,1.19343286 387.065312,1.03686984 389.832861,0.880306814 C390.178805,0.860616373 390.524749,0.840925931 390.865217,0.821715744 C391.206681,0.822676253 391.542171,0.823156508 391.867209,0.823636763 C392.517284,0.826998546 393.123557,0.829880074 393.643716,0.832281347 C394.683538,0.837083894 395.376421,0.839965422 395.376421,0.839965422 L395.385878,0.0187299322 C395.385878,0.0187299322 394.688018,0.0153681495 393.640232,0.0105656028 C393.116588,0.00816432943 392.505836,0.00528280139 391.851281,0.00240127336 C391.523754,0.00144076402 391.185775,0.000960509344 390.84232,0 C390.498865,0.0196904416 390.150433,0.0393808831 389.802,0.0590713247 C387.013048,0.217075112 384.224593,0.375078899 384.224593,0.375078899 C384.224593,0.375078899 384.050377,0.384683992 383.745249,0.401973161 C383.441118,0.428867422 383.008564,0.487458492 382.488404,0.547010072 C381.448582,0.671396032 380.062319,0.836603639 378.675558,1.0022915 C377.982675,1.08585581 377.289792,1.16990038 376.640215,1.24818189 C375.99661,1.36632454 375.396311,1.47630286 374.881626,1.57043278 C373.852258,1.75965312 373.165846,1.88547984 373.165846,1.88547984 L373.326125,2.69230769 C373.326125,2.69230769 374.007061,2.56744148 375.027968,2.38014216 Z" id="Stroke-68" stroke="#FFFFFF" stroke-width="0.5"></path>
            <path d="M394.440454,144.626518 C393.091207,144.343575 391.757372,143.996637 390.749662,143.764888 C389.744438,143.525369 389.074289,143.365385 389.074289,143.365385 L388.850575,144.119596 C388.850575,144.119596 389.525695,144.280952 390.537879,144.522757 C391.552549,144.755877 392.89583,145.104643 394.25502,145.389872 C395.615204,145.632591 396.975388,145.874853 398,146.057692 L398,145.26097 C397.002731,145.083159 395.723581,144.855524 394.440454,144.626518" id="Fill-69" fill="#000000"></path>
            <path d="M394.440454,144.626518 C393.091207,144.343575 391.757372,143.996637 390.749662,143.764888 C389.744438,143.525369 389.074289,143.365385 389.074289,143.365385 L388.850575,144.119596 C388.850575,144.119596 389.525695,144.280952 390.537879,144.522757 C391.552549,144.755877 392.89583,145.104643 394.25502,145.389872 C395.615204,145.632591 396.975388,145.874853 398,146.057692 L398,145.26097 C397.002731,145.083159 395.723581,144.855524 394.440454,144.626518 Z" id="Stroke-70" stroke="#FFFFFF" stroke-width="0.5"></path>
        </g>
    </g>
</svg>